<svg id="visual" viewBox="0 0 900 600" width="900" height="600" xmlns="http://www.w3.org/2000/svg" xmlns:xlink="http://www.w3.org/1999/xlink" version="1.1"><path d="M0 97L82 97L164 103L245 103L327 121L409 115L491 97L573 127L655 133L736 85L818 85L900 79L900 0L818 0L736 0L655 0L573 0L491 0L409 0L327 0L245 0L164 0L82 0L0 0Z" fill="#1f1c2c"></path><path d="M0 157L82 145L164 157L245 163L327 175L409 169L491 139L573 187L655 181L736 121L818 133L900 109L900 77L818 83L736 83L655 131L573 125L491 95L409 113L327 119L245 101L164 101L82 95L0 95Z" fill="#302d3f"></path><path d="M0 217L82 211L164 241L245 229L327 229L409 211L491 199L573 241L655 259L736 169L818 229L900 205L900 107L818 131L736 119L655 179L573 185L491 137L409 167L327 173L245 161L164 155L82 143L0 155Z" fill="#423e53"></path><path d="M0 301L82 355L164 361L245 379L327 391L409 337L491 283L573 385L655 373L736 295L818 313L900 391L900 203L818 227L736 167L655 257L573 239L491 197L409 209L327 227L245 227L164 239L82 209L0 215Z" fill="#555168"></path><path d="M0 379L82 427L164 427L245 439L327 469L409 397L491 355L573 421L655 415L736 331L818 391L900 433L900 389L818 311L736 293L655 371L573 383L491 281L409 335L327 389L245 377L164 359L82 353L0 299Z" fill="#69647e"></path><path d="M0 541L82 553L164 571L245 541L327 559L409 535L491 547L573 535L655 565L736 529L818 571L900 553L900 431L818 389L736 329L655 413L573 419L491 353L409 395L327 467L245 437L164 425L82 425L0 377Z" fill="#7d7894"></path><path d="M0 601L82 601L164 601L245 601L327 601L409 601L491 601L573 601L655 601L736 601L818 601L900 601L900 551L818 569L736 527L655 563L573 533L491 545L409 533L327 557L245 539L164 569L82 551L0 539Z" fill="#928dab"></path></svg>